<?xml version="1.0" standalone="no"?>
<!DOCTYPE svg PUBLIC "-//W3C//DTD SVG 20010904//EN"
 "http://www.w3.org/TR/2001/REC-SVG-20010904/DTD/svg10.dtd">
<svg version="1.0" xmlns="http://www.w3.org/2000/svg"
 width="512.000000pt" height="512.000000pt" viewBox="0 0 512.000000 512.000000"
 preserveAspectRatio="xMidYMid meet">
<metadata>
Created by potrace 1.14, written by Peter Selinger 2001-2017
</metadata>
<g transform="translate(0.000000,512.000000) scale(0.100000,-0.100000)"
fill="#000000" stroke="none">
<path d="M2320 5110 c-502 -52 -982 -248 -1365 -557 -288 -232 -517 -518 -684
-854 -124 -249 -204 -502 -247 -784 -26 -169 -26 -541 0 -710 71 -465 260
-899 543 -1250 232 -288 518 -517 854 -684 249 -124 502 -204 784 -247 169
-26 541 -26 710 0 465 71 899 260 1250 543 288 232 517 518 684 854 124 249
204 502 247 784 26 169 26 541 0 710 -71 465 -260 899 -543 1250 -232 288
-518 517 -854 684 -246 123 -506 205 -779 246 -124 19 -478 28 -600 15z m417
-686 c29 -18 45 -18 104 3 47 17 52 17 116 -1 38 -10 97 -22 132 -27 38 -5 82
-19 108 -35 50 -29 112 -40 290 -52 101 -7 119 -12 185 -45 40 -20 82 -37 94
-37 13 0 37 19 62 49 63 74 132 80 132 11 0 -20 -14 -41 -55 -79 -96 -91 -175
-110 -290 -71 -43 15 -72 18 -106 14 -29 -4 -73 0 -117 10 -39 9 -91 16 -115
16 -29 0 -64 10 -103 30 -32 17 -77 33 -99 36 -22 3 -60 12 -85 20 -66 20
-109 20 -162 0 -49 -19 -80 -18 -135 5 -76 31 -301 -45 -400 -134 -100 -92
-141 -226 -127 -416 l7 -94 51 -48 c51 -48 52 -49 119 -49 95 0 116 14 157
102 30 63 34 83 34 148 0 41 -4 102 -8 136 -8 55 -7 62 16 89 44 51 76 17 109
-116 38 -150 14 -297 -63 -376 -85 -88 -329 -130 -433 -75 -16 9 -50 17 -75
17 -25 1 -55 7 -68 14 -28 15 -77 113 -85 168 -3 25 -16 56 -31 74 -37 44 -32
112 11 144 12 9 10 17 -9 52 -22 39 -22 43 -6 76 10 20 29 39 47 47 27 11 31
17 31 52 0 74 41 118 170 183 30 15 73 47 95 72 34 38 46 45 78 45 21 0 44 -6
52 -12 12 -10 24 -6 63 25 45 35 50 36 102 31 36 -4 69 -1 95 8 42 16 76 12
112 -10z m367 -258 c42 -18 113 -80 132 -117 20 -40 18 -92 -6 -114 -26 -24
-26 -75 1 -151 15 -43 19 -74 16 -116 -4 -47 -1 -62 14 -82 14 -17 19 -38 18
-65 -2 -22 3 -46 10 -55 7 -8 11 -33 10 -55 -2 -27 2 -46 14 -59 21 -23 22
-68 3 -114 -14 -34 -14 -35 15 -60 23 -21 29 -34 29 -67 0 -22 -5 -51 -11 -65
-10 -21 -8 -29 10 -52 30 -38 28 -111 -4 -176 -31 -61 -31 -77 -2 -125 21 -37
22 -46 20 -253 -2 -289 -36 -505 -118 -749 -120 -355 -204 -470 -516 -706
-262 -200 -494 -301 -714 -311 -122 -6 -137 -3 -397 89 -164 58 -220 89 -291
159 -116 114 -170 291 -169 553 0 222 39 349 150 496 95 124 364 357 472 408
50 23 67 26 175 26 112 0 123 -2 166 -27 132 -77 211 -267 213 -508 1 -126 -9
-169 -55 -237 -45 -65 -118 -96 -227 -97 -74 0 -93 3 -129 24 -77 43 -108 149
-57 189 56 44 134 15 134 -49 0 -24 4 -30 23 -30 39 0 99 43 121 85 17 33 21
58 21 135 -1 152 -30 188 -161 196 -43 3 -113 12 -155 21 -106 22 -140 14
-203 -50 -29 -29 -72 -88 -98 -132 -25 -44 -76 -116 -112 -159 -95 -114 -110
-159 -110 -321 2 -292 86 -436 299 -508 39 -14 103 -38 143 -55 104 -45 175
-55 281 -43 217 27 441 149 739 404 109 93 165 168 220 292 84 191 125 356
163 651 l22 171 -27 179 c-15 103 -79 407 -149 714 l-123 535 8 107 c10 134
35 204 88 252 44 40 56 42 104 22z"/>
</g>
</svg>
